<svg width="51" height="615" viewBox="0 0 51 615" fill="none" xmlns="http://www.w3.org/2000/svg">
<g filter="url(#filter0_n_460_2)">
<path d="M0 183.442C2.00566 181.274 4.19902 179.293 6.16982 177.08C8.78147 174.149 15.4232 166.775 15.2945 162.398C15.2731 161.641 14.9459 160.538 14.5705 159.911C11.739 157.691 2.72695 164.983 0 166.795L0 143.294C3.29808 142.85 6.71414 143.134 10.0229 142.602C13.7929 141.994 19.8448 140.248 20.1263 134.64C20.2979 131.223 18.1421 121.904 17.3511 118.088C13.5838 99.8977 8.40876 82.1574 4.73261 63.9243L0 37.2111L0 0.000668497H14.7475C14.0772 1.98196 13.018 3.70536 12.2887 5.65728C7.07344 19.5916 9.92373 35.4094 13.8198 49.2784C25.044 89.234 56.9013 142.961 44.9022 186.043C40.856 200.571 29.8516 221.488 15.9649 222.627C9.76821 223.136 5.41368 220.003 0 217.065L0 183.442Z" fill="url(#paint0_linear_460_2)"/>
</g>
<g filter="url(#filter1_n_460_2)">
<path d="M0 183.442C2.00566 181.274 4.19902 179.293 6.16982 177.08C8.78147 174.149 15.4232 166.775 15.2945 162.398C15.2731 161.641 14.9459 160.538 14.5705 159.911C11.739 157.691 2.72695 164.983 0 166.795L0 143.294C3.29808 142.85 6.71414 143.134 10.0229 142.602C13.7929 141.994 19.8448 140.248 20.1263 134.64C20.2979 131.223 18.1421 121.904 17.3511 118.088C13.5838 99.8977 8.40876 82.1574 4.73261 63.9243L0 37.2111L0 0.000668497H14.7475C14.0772 1.98196 13.018 3.70536 12.2887 5.65728C7.07344 19.5916 9.92373 35.4094 13.8198 49.2784C25.044 89.234 56.9013 142.961 44.9022 186.043C40.856 200.571 29.8516 221.488 15.9649 222.627C9.76821 223.136 5.41368 220.003 0 217.065L0 183.442Z" fill="url(#paint1_linear_460_2)"/>
</g>
<g filter="url(#filter2_n_460_2)">
<path d="M0 425.097C8.00924 440.004 16.8765 454.311 24.513 469.515C33.5063 487.422 42.2851 507.489 35.0642 528.653C28.8166 546.962 14.2944 562.802 0.00268137 571.654L0.00268137 611.802C4.24728 612.514 8.45435 613.683 12.7418 614.084C21.2579 614.88 30.581 614.166 36.606 605.93C40.5476 600.545 42.0974 591.934 43.5776 585.04C49.5168 557.367 53.866 525.788 47.0606 497.886C40.2419 469.929 28.6316 444.382 18.8446 417.991C17.1741 413.487 12.3691 401.119 12.0742 396.857C11.9294 394.781 12.2887 393.648 13.4095 392.127H0L0 425.097Z" fill="url(#paint2_linear_460_2)"/>
</g>
<g filter="url(#filter3_n_460_2)">
<path d="M7.42578 246.231C13.0764 256.842 19.3323 267.025 24.72 277.847C31.0649 290.593 37.2584 304.876 32.1639 319.941C27.7562 332.972 17.5106 344.247 7.42767 350.548L7.42767 379.125C10.4223 379.631 13.3904 380.463 16.4153 380.749C22.4234 381.316 29.001 380.807 33.2517 374.945C36.0325 371.112 37.126 364.983 38.1702 360.076C42.3604 340.379 45.4288 317.901 40.6276 298.041C35.8169 278.142 27.6257 259.958 20.7209 241.174C19.5423 237.967 16.1523 229.164 15.9442 226.13C15.8421 224.653 16.0956 223.846 16.8863 222.764H7.42578L7.42578 246.231Z" fill="url(#paint3_linear_460_2)"/>
</g>
<defs>
<filter id="filter0_n_460_2" x="0" y="0" width="47.5605" height="222.682" filterUnits="userSpaceOnUse" color-interpolation-filters="sRGB">
<feFlood flood-opacity="0" result="BackgroundImageFix"/>
<feBlend mode="normal" in="SourceGraphic" in2="BackgroundImageFix" result="shape"/>
<feTurbulence type="fractalNoise" baseFrequency="0.66666668653488159 0.66666668653488159" stitchTiles="stitch" numOctaves="3" result="noise" seed="9008" />
<feColorMatrix in="noise" type="luminanceToAlpha" result="alphaNoise" />
<feComponentTransfer in="alphaNoise" result="coloredNoise1">
<feFuncA type="discrete" tableValues="1 1 1 1 1 1 1 1 1 1 1 1 1 1 1 1 1 1 1 1 1 1 1 1 1 1 1 1 1 1 1 1 1 1 1 1 1 1 1 1 1 1 1 1 1 1 1 1 1 1 1 0 0 0 0 0 0 0 0 0 0 0 0 0 0 0 0 0 0 0 0 0 0 0 0 0 0 0 0 0 0 0 0 0 0 0 0 0 0 0 0 0 0 0 0 0 0 0 0 0 "/>
</feComponentTransfer>
<feComposite operator="in" in2="shape" in="coloredNoise1" result="noise1Clipped" />
<feFlood flood-color="rgba(34, 45, 52, 0.25)" result="color1Flood" />
<feComposite operator="in" in2="noise1Clipped" in="color1Flood" result="color1" />
<feMerge result="effect1_noise_460_2">
<feMergeNode in="shape" />
<feMergeNode in="color1" />
</feMerge>
</filter>
<filter id="filter1_n_460_2" x="0" y="0" width="47.5605" height="222.682" filterUnits="userSpaceOnUse" color-interpolation-filters="sRGB">
<feFlood flood-opacity="0" result="BackgroundImageFix"/>
<feBlend mode="normal" in="SourceGraphic" in2="BackgroundImageFix" result="shape"/>
<feTurbulence type="fractalNoise" baseFrequency="0.66666668653488159 0.66666668653488159" stitchTiles="stitch" numOctaves="3" result="noise" seed="9008" />
<feColorMatrix in="noise" type="luminanceToAlpha" result="alphaNoise" />
<feComponentTransfer in="alphaNoise" result="coloredNoise1">
<feFuncA type="discrete" tableValues="1 1 1 1 1 1 1 1 1 1 1 1 1 1 1 1 1 1 1 1 1 1 1 1 1 1 1 1 1 1 1 1 1 1 1 1 1 1 1 1 1 1 1 1 1 1 1 1 1 1 1 0 0 0 0 0 0 0 0 0 0 0 0 0 0 0 0 0 0 0 0 0 0 0 0 0 0 0 0 0 0 0 0 0 0 0 0 0 0 0 0 0 0 0 0 0 0 0 0 0 "/>
</feComponentTransfer>
<feComposite operator="in" in2="shape" in="coloredNoise1" result="noise1Clipped" />
<feFlood flood-color="rgba(34, 45, 52, 0.25)" result="color1Flood" />
<feComposite operator="in" in2="noise1Clipped" in="color1Flood" result="color1" />
<feMerge result="effect1_noise_460_2">
<feMergeNode in="shape" />
<feMergeNode in="color1" />
</feMerge>
</filter>
<filter id="filter2_n_460_2" x="0" y="392.127" width="50.5195" height="222.207" filterUnits="userSpaceOnUse" color-interpolation-filters="sRGB">
<feFlood flood-opacity="0" result="BackgroundImageFix"/>
<feBlend mode="normal" in="SourceGraphic" in2="BackgroundImageFix" result="shape"/>
<feTurbulence type="fractalNoise" baseFrequency="0.66666668653488159 0.66666668653488159" stitchTiles="stitch" numOctaves="3" result="noise" seed="9008" />
<feColorMatrix in="noise" type="luminanceToAlpha" result="alphaNoise" />
<feComponentTransfer in="alphaNoise" result="coloredNoise1">
<feFuncA type="discrete" tableValues="1 1 1 1 1 1 1 1 1 1 1 1 1 1 1 1 1 1 1 1 1 1 1 1 1 1 1 1 1 1 1 1 1 1 1 1 1 1 1 1 1 1 1 1 1 1 1 1 1 1 1 0 0 0 0 0 0 0 0 0 0 0 0 0 0 0 0 0 0 0 0 0 0 0 0 0 0 0 0 0 0 0 0 0 0 0 0 0 0 0 0 0 0 0 0 0 0 0 0 0 "/>
</feComponentTransfer>
<feComposite operator="in" in2="shape" in="coloredNoise1" result="noise1Clipped" />
<feFlood flood-color="rgba(34, 45, 52, 0.25)" result="color1Flood" />
<feComposite operator="in" in2="noise1Clipped" in="color1Flood" result="color1" />
<feMerge result="effect1_noise_460_2">
<feMergeNode in="shape" />
<feMergeNode in="color1" />
</feMerge>
</filter>
<filter id="filter3_n_460_2" x="7.42578" y="222.764" width="35.6426" height="158.162" filterUnits="userSpaceOnUse" color-interpolation-filters="sRGB">
<feFlood flood-opacity="0" result="BackgroundImageFix"/>
<feBlend mode="normal" in="SourceGraphic" in2="BackgroundImageFix" result="shape"/>
<feTurbulence type="fractalNoise" baseFrequency="0.66666668653488159 0.66666668653488159" stitchTiles="stitch" numOctaves="3" result="noise" seed="9008" />
<feColorMatrix in="noise" type="luminanceToAlpha" result="alphaNoise" />
<feComponentTransfer in="alphaNoise" result="coloredNoise1">
<feFuncA type="discrete" tableValues="1 1 1 1 1 1 1 1 1 1 1 1 1 1 1 1 1 1 1 1 1 1 1 1 1 1 1 1 1 1 1 1 1 1 1 1 1 1 1 1 1 1 1 1 1 1 1 1 1 1 1 0 0 0 0 0 0 0 0 0 0 0 0 0 0 0 0 0 0 0 0 0 0 0 0 0 0 0 0 0 0 0 0 0 0 0 0 0 0 0 0 0 0 0 0 0 0 0 0 0 "/>
</feComponentTransfer>
<feComposite operator="in" in2="shape" in="coloredNoise1" result="noise1Clipped" />
<feFlood flood-color="rgba(34, 45, 52, 0.25)" result="color1Flood" />
<feComposite operator="in" in2="noise1Clipped" in="color1Flood" result="color1" />
<feMerge result="effect1_noise_460_2">
<feMergeNode in="shape" />
<feMergeNode in="color1" />
</feMerge>
</filter>
<linearGradient id="paint0_linear_460_2" x1="-20.9147" y1="613.813" x2="318.546" y2="613.813" gradientUnits="userSpaceOnUse">
<stop offset="0.0480769" stop-color="#182226"/>
<stop offset="0.201923" stop-color="#F2527D"/>
<stop offset="0.461538" stop-color="#F285A2"/>
<stop offset="0.735577" stop-color="#F25774"/>
<stop offset="0.944135" stop-color="#182126"/>
</linearGradient>
<linearGradient id="paint1_linear_460_2" x1="-20.9147" y1="613.813" x2="318.546" y2="613.813" gradientUnits="userSpaceOnUse">
<stop offset="0.0480769" stop-color="#182226"/>
<stop offset="0.201923" stop-color="#F2527D"/>
<stop offset="0.461538" stop-color="#F285A2"/>
<stop offset="0.735577" stop-color="#F25774"/>
<stop offset="0.944135" stop-color="#182126"/>
</linearGradient>
<linearGradient id="paint2_linear_460_2" x1="-20.9147" y1="405.02" x2="318.546" y2="405.02" gradientUnits="userSpaceOnUse">
<stop offset="0.0480769" stop-color="#182226"/>
<stop offset="0.201923" stop-color="#F2527D"/>
<stop offset="0.461538" stop-color="#F285A2"/>
<stop offset="0.735577" stop-color="#F25774"/>
<stop offset="0.944135" stop-color="#182126"/>
</linearGradient>
<linearGradient id="paint3_linear_460_2" x1="-7.32972" y1="231.941" x2="232.163" y2="231.941" gradientUnits="userSpaceOnUse">
<stop offset="0.0480769" stop-color="#182226"/>
<stop offset="0.201923" stop-color="#F2527D"/>
<stop offset="0.461538" stop-color="#F285A2"/>
<stop offset="0.735577" stop-color="#F25774"/>
<stop offset="0.944135" stop-color="#182126"/>
</linearGradient>
</defs>
</svg>
