<svg width="133" height="323" viewBox="0 0 133 323" fill="none" xmlns="http://www.w3.org/2000/svg">
<g filter="url(#filter0_n_372_4)">
<path d="M2.27257 0.00360107H51.7439C52.2494 6.29837 52.1013 12.7558 52.6213 19.0374C53.0619 24.3563 54.3185 37.425 57.0124 41.2889C63.422 50.4937 65.4008 31.8247 66.0075 27.2619C67.1991 18.2769 67.2388 8.93584 68.7194 0.00360107L117.107 0.00360107C111.976 6.2632 106.578 12.2591 101.569 18.6725C94.6503 27.5388 75.9162 52.7442 76.3964 64.8151C76.4759 66.8195 76.8261 68.7933 77.9167 70.3494C79.7077 72.9166 87.9482 77.1805 90.8659 78.7629C104.588 86.2138 119.01 91.8184 132.996 98.4692V123.965C118.83 120.061 104.498 116.94 90.382 112.76C61.7753 104.285 27.9579 91.3525 11.7371 59.0391C3.38477 42.401 -3.67842 19.1648 2.2798 -0.000793457L2.27257 0.00360107Z" fill="url(#paint0_linear_372_4)"/>
<path d="M132.993 196.935L132.993 322.215C129.298 317.929 126.251 312.456 123.452 307.234C111.395 284.728 98.6407 250.845 106.166 223.846C110.113 209.687 120.625 198.531 132.993 196.939V196.935Z" fill="url(#paint1_linear_372_4)"/>
</g>
<defs>
<filter id="filter0_n_372_4" x="0.0668945" y="0" width="132.929" height="322.215" filterUnits="userSpaceOnUse" color-interpolation-filters="sRGB">
<feFlood flood-opacity="0" result="BackgroundImageFix"/>
<feBlend mode="normal" in="SourceGraphic" in2="BackgroundImageFix" result="shape"/>
<feTurbulence type="fractalNoise" baseFrequency="0.66666668653488159 0.66666668653488159" stitchTiles="stitch" numOctaves="3" result="noise" seed="9008" />
<feColorMatrix in="noise" type="luminanceToAlpha" result="alphaNoise" />
<feComponentTransfer in="alphaNoise" result="coloredNoise1">
<feFuncA type="discrete" tableValues="1 1 1 1 1 1 1 1 1 1 1 1 1 1 1 1 1 1 1 1 1 1 1 1 1 1 1 1 1 1 1 1 1 1 1 1 1 1 1 1 1 1 1 1 1 1 1 1 1 1 1 0 0 0 0 0 0 0 0 0 0 0 0 0 0 0 0 0 0 0 0 0 0 0 0 0 0 0 0 0 0 0 0 0 0 0 0 0 0 0 0 0 0 0 0 0 0 0 0 0 "/>
</feComponentTransfer>
<feComposite operator="in" in2="shape" in="coloredNoise1" result="noise1Clipped" />
<feFlood flood-color="rgba(34, 45, 52, 0.25)" result="color1Flood" />
<feComposite operator="in" in2="noise1Clipped" in="color1Flood" result="color1" />
<feMerge result="effect1_noise_372_4">
<feMergeNode in="shape" />
<feMergeNode in="color1" />
</feMerge>
</filter>
<linearGradient id="paint0_linear_372_4" x1="-285.166" y1="826.637" x2="171.992" y2="826.637" gradientUnits="userSpaceOnUse">
<stop offset="0.0480769" stop-color="#182216"/>
<stop offset="0.201923" stop-color="#F2527D"/>
<stop offset="0.461538" stop-color="#F285A2"/>
<stop offset="0.735577" stop-color="#F25774"/>
<stop offset="0.944135" stop-color="#182126"/>
</linearGradient>
<linearGradient id="paint1_linear_372_4" x1="-285.166" y1="826.637" x2="171.992" y2="826.637" gradientUnits="userSpaceOnUse">
<stop offset="0.0480769" stop-color="#182216"/>
<stop offset="0.201923" stop-color="#F2527D"/>
<stop offset="0.461538" stop-color="#F285A2"/>
<stop offset="0.735577" stop-color="#F25774"/>
<stop offset="0.944135" stop-color="#182126"/>
</linearGradient>
</defs>
</svg>
