<svg width="154" height="844" viewBox="0 0 154 844" fill="none" xmlns="http://www.w3.org/2000/svg">
<g filter="url(#filter0_n_237_44)">
<path d="M0 247.045C2.70106 244.127 5.65489 241.458 8.30901 238.478C11.8262 234.531 20.7707 224.601 20.5974 218.706C20.5685 217.686 20.128 216.2 19.6224 215.356C15.8091 212.367 3.67243 222.187 0 224.627L0 192.977C4.44158 192.379 9.04205 192.762 13.4981 192.045C18.5752 191.228 26.7253 188.876 27.1045 181.324C27.3356 176.722 24.4323 164.172 23.3671 159.033C18.2935 134.535 11.3242 110.644 6.37349 86.0893L0 50.1142L0 0.00222778H19.8607C18.958 2.67047 17.5316 4.99139 16.5494 7.62009C9.52593 26.3857 13.3645 47.6877 18.6113 66.3654C33.7271 120.174 76.6299 192.529 60.4705 250.549C55.0215 270.115 40.2017 298.283 21.5001 299.817C13.155 300.503 7.2907 296.283 0 292.326L0 247.045Z" fill="url(#paint0_linear_237_44)"/>
</g>
<g filter="url(#filter1_n_237_44)">
<path d="M0 799.596C10.7862 779.521 22.7279 760.254 33.0121 739.778C45.1236 715.663 56.9461 688.638 47.2216 660.135C38.8079 635.479 19.2505 614.147 0.00361104 602.225L0.00361104 548.157C5.71989 547.199 11.3856 545.625 17.1597 545.085C28.6283 544.012 41.1839 544.975 49.298 556.065C54.6062 563.318 56.6934 574.914 58.6867 584.198C66.6851 621.466 72.5422 663.995 63.3774 701.57C54.1945 739.22 38.5587 773.626 25.3784 809.166C23.1287 815.232 16.6577 831.888 16.2605 837.629C16.0655 840.424 16.5494 841.95 18.0588 843.998H0L0 799.596Z" fill="url(#paint1_linear_237_44)"/>
</g>
<g filter="url(#filter2_n_237_44)">
<path d="M132.164 0.00358582L153.469 0.00358582C144.626 31.9654 118.103 79.6861 85.5059 60.9776C72.7048 53.6322 66.3602 36.3348 74.2358 20.699C84.0976 1.12452 108.003 8.06546 123.577 4.27629C126.426 3.58176 129.922 2.27181 132.161 -0.000808716L132.164 0.00358582Z" fill="url(#paint2_linear_237_44)"/>
</g>
<g filter="url(#filter3_n_237_44)">
<path d="M105.804 843.994C98.6392 834.495 89.5791 827.514 81.4398 819.365C72.7444 810.661 64.8507 803.483 68.8698 787.825C74.8641 764.474 99.8309 762.008 111.372 780.734C121.786 797.632 124 823.492 124.585 843.994H105.804Z" fill="url(#paint3_linear_237_44)"/>
</g>
<g filter="url(#filter4_n_237_44)">
<path d="M0 247.045C2.70106 244.127 5.65489 241.458 8.30901 238.478C11.8262 234.531 20.7707 224.601 20.5974 218.706C20.5685 217.686 20.128 216.2 19.6224 215.356C15.8091 212.367 3.67243 222.187 0 224.627L0 192.977C4.44158 192.379 9.04205 192.762 13.4981 192.045C18.5752 191.228 26.7253 188.876 27.1045 181.324C27.3356 176.722 24.4323 164.172 23.3671 159.033C18.2935 134.535 11.3242 110.644 6.37349 86.0893L0 50.1142L0 0.00222778H19.8607C18.958 2.67047 17.5316 4.99139 16.5494 7.62009C9.52593 26.3857 13.3645 47.6877 18.6113 66.3654C33.7271 120.174 76.6299 192.529 60.4705 250.549C55.0215 270.115 40.2017 298.283 21.5001 299.817C13.155 300.503 7.2907 296.283 0 292.326L0 247.045Z" fill="url(#paint4_linear_237_44)"/>
</g>
<g filter="url(#filter5_n_237_44)">
<path d="M0 799.596C10.7862 779.521 22.7279 760.254 33.0121 739.778C45.1236 715.663 56.9461 688.638 47.2216 660.135C38.8079 635.479 19.2505 614.147 0.00361104 602.225L0.00361104 548.157C5.71989 547.199 11.3856 545.625 17.1597 545.085C28.6283 544.012 41.1839 544.975 49.298 556.065C54.6062 563.318 56.6934 574.914 58.6867 584.198C66.6851 621.466 72.5422 663.995 63.3774 701.57C54.1945 739.22 38.5587 773.626 25.3784 809.166C23.1287 815.232 16.6577 831.888 16.2605 837.629C16.0655 840.424 16.5494 841.95 18.0588 843.998H0L0 799.596Z" fill="url(#paint5_linear_237_44)"/>
</g>
<g filter="url(#filter6_n_237_44)">
<path d="M132.164 0.00358582L153.469 0.00358582C144.626 31.9654 118.103 79.6861 85.5059 60.9776C72.7048 53.6322 66.3602 36.3348 74.2358 20.699C84.0976 1.12452 108.003 8.06546 123.577 4.27629C126.426 3.58176 129.922 2.27181 132.161 -0.000808716L132.164 0.00358582Z" fill="url(#paint6_linear_237_44)"/>
</g>
<g filter="url(#filter7_n_237_44)">
<path d="M105.804 843.994C98.6392 834.495 89.5791 827.514 81.4398 819.365C72.7444 810.661 64.8507 803.483 68.8698 787.825C74.8641 764.474 99.8309 762.008 111.372 780.734C121.786 797.632 124 823.492 124.585 843.994H105.804Z" fill="url(#paint7_linear_237_44)"/>
</g>
<defs>
<filter id="filter0_n_237_44" x="0" y="0.00195312" width="64.0513" height="299.889" filterUnits="userSpaceOnUse" color-interpolation-filters="sRGB">
<feFlood flood-opacity="0" result="BackgroundImageFix"/>
<feBlend mode="normal" in="SourceGraphic" in2="BackgroundImageFix" result="shape"/>
<feTurbulence type="fractalNoise" baseFrequency="0.66666668653488159 0.66666668653488159" stitchTiles="stitch" numOctaves="3" result="noise" seed="9008" />
<feColorMatrix in="noise" type="luminanceToAlpha" result="alphaNoise" />
<feComponentTransfer in="alphaNoise" result="coloredNoise1">
<feFuncA type="discrete" tableValues="1 1 1 1 1 1 1 1 1 1 1 1 1 1 1 1 1 1 1 1 1 1 1 1 1 1 1 1 1 1 1 1 1 1 1 1 1 1 1 1 1 1 1 1 1 1 1 1 1 1 1 0 0 0 0 0 0 0 0 0 0 0 0 0 0 0 0 0 0 0 0 0 0 0 0 0 0 0 0 0 0 0 0 0 0 0 0 0 0 0 0 0 0 0 0 0 0 0 0 0 "/>
</feComponentTransfer>
<feComposite operator="in" in2="shape" in="coloredNoise1" result="noise1Clipped" />
<feFlood flood-color="rgba(34, 45, 52, 0.25)" result="color1Flood" />
<feComposite operator="in" in2="noise1Clipped" in="color1Flood" result="color1" />
<feMerge result="effect1_noise_237_44">
<feMergeNode in="shape" />
<feMergeNode in="color1" />
</feMerge>
</filter>
<filter id="filter1_n_237_44" x="0" y="544.75" width="68.0359" height="299.248" filterUnits="userSpaceOnUse" color-interpolation-filters="sRGB">
<feFlood flood-opacity="0" result="BackgroundImageFix"/>
<feBlend mode="normal" in="SourceGraphic" in2="BackgroundImageFix" result="shape"/>
<feTurbulence type="fractalNoise" baseFrequency="0.66666668653488159 0.66666668653488159" stitchTiles="stitch" numOctaves="3" result="noise" seed="9008" />
<feColorMatrix in="noise" type="luminanceToAlpha" result="alphaNoise" />
<feComponentTransfer in="alphaNoise" result="coloredNoise1">
<feFuncA type="discrete" tableValues="1 1 1 1 1 1 1 1 1 1 1 1 1 1 1 1 1 1 1 1 1 1 1 1 1 1 1 1 1 1 1 1 1 1 1 1 1 1 1 1 1 1 1 1 1 1 1 1 1 1 1 0 0 0 0 0 0 0 0 0 0 0 0 0 0 0 0 0 0 0 0 0 0 0 0 0 0 0 0 0 0 0 0 0 0 0 0 0 0 0 0 0 0 0 0 0 0 0 0 0 "/>
</feComponentTransfer>
<feComposite operator="in" in2="shape" in="coloredNoise1" result="noise1Clipped" />
<feFlood flood-color="rgba(34, 45, 52, 0.25)" result="color1Flood" />
<feComposite operator="in" in2="noise1Clipped" in="color1Flood" result="color1" />
<feMerge result="effect1_noise_237_44">
<feMergeNode in="shape" />
<feMergeNode in="color1" />
</feMerge>
</filter>
<filter id="filter2_n_237_44" x="70.7775" y="0" width="82.6919" height="65.1953" filterUnits="userSpaceOnUse" color-interpolation-filters="sRGB">
<feFlood flood-opacity="0" result="BackgroundImageFix"/>
<feBlend mode="normal" in="SourceGraphic" in2="BackgroundImageFix" result="shape"/>
<feTurbulence type="fractalNoise" baseFrequency="0.66666668653488159 0.66666668653488159" stitchTiles="stitch" numOctaves="3" result="noise" seed="9008" />
<feColorMatrix in="noise" type="luminanceToAlpha" result="alphaNoise" />
<feComponentTransfer in="alphaNoise" result="coloredNoise1">
<feFuncA type="discrete" tableValues="1 1 1 1 1 1 1 1 1 1 1 1 1 1 1 1 1 1 1 1 1 1 1 1 1 1 1 1 1 1 1 1 1 1 1 1 1 1 1 1 1 1 1 1 1 1 1 1 1 1 1 0 0 0 0 0 0 0 0 0 0 0 0 0 0 0 0 0 0 0 0 0 0 0 0 0 0 0 0 0 0 0 0 0 0 0 0 0 0 0 0 0 0 0 0 0 0 0 0 0 "/>
</feComponentTransfer>
<feComposite operator="in" in2="shape" in="coloredNoise1" result="noise1Clipped" />
<feFlood flood-color="rgba(34, 45, 52, 0.25)" result="color1Flood" />
<feComposite operator="in" in2="noise1Clipped" in="color1Flood" result="color1" />
<feMerge result="effect1_noise_237_44">
<feMergeNode in="shape" />
<feMergeNode in="color1" />
</feMerge>
</filter>
<filter id="filter3_n_237_44" x="67.792" y="768.297" width="56.7926" height="75.6973" filterUnits="userSpaceOnUse" color-interpolation-filters="sRGB">
<feFlood flood-opacity="0" result="BackgroundImageFix"/>
<feBlend mode="normal" in="SourceGraphic" in2="BackgroundImageFix" result="shape"/>
<feTurbulence type="fractalNoise" baseFrequency="0.66666668653488159 0.66666668653488159" stitchTiles="stitch" numOctaves="3" result="noise" seed="9008" />
<feColorMatrix in="noise" type="luminanceToAlpha" result="alphaNoise" />
<feComponentTransfer in="alphaNoise" result="coloredNoise1">
<feFuncA type="discrete" tableValues="1 1 1 1 1 1 1 1 1 1 1 1 1 1 1 1 1 1 1 1 1 1 1 1 1 1 1 1 1 1 1 1 1 1 1 1 1 1 1 1 1 1 1 1 1 1 1 1 1 1 1 0 0 0 0 0 0 0 0 0 0 0 0 0 0 0 0 0 0 0 0 0 0 0 0 0 0 0 0 0 0 0 0 0 0 0 0 0 0 0 0 0 0 0 0 0 0 0 0 0 "/>
</feComponentTransfer>
<feComposite operator="in" in2="shape" in="coloredNoise1" result="noise1Clipped" />
<feFlood flood-color="rgba(34, 45, 52, 0.25)" result="color1Flood" />
<feComposite operator="in" in2="noise1Clipped" in="color1Flood" result="color1" />
<feMerge result="effect1_noise_237_44">
<feMergeNode in="shape" />
<feMergeNode in="color1" />
</feMerge>
</filter>
<filter id="filter4_n_237_44" x="0" y="0.00195312" width="64.0513" height="299.889" filterUnits="userSpaceOnUse" color-interpolation-filters="sRGB">
<feFlood flood-opacity="0" result="BackgroundImageFix"/>
<feBlend mode="normal" in="SourceGraphic" in2="BackgroundImageFix" result="shape"/>
<feTurbulence type="fractalNoise" baseFrequency="0.66666668653488159 0.66666668653488159" stitchTiles="stitch" numOctaves="3" result="noise" seed="9008" />
<feColorMatrix in="noise" type="luminanceToAlpha" result="alphaNoise" />
<feComponentTransfer in="alphaNoise" result="coloredNoise1">
<feFuncA type="discrete" tableValues="1 1 1 1 1 1 1 1 1 1 1 1 1 1 1 1 1 1 1 1 1 1 1 1 1 1 1 1 1 1 1 1 1 1 1 1 1 1 1 1 1 1 1 1 1 1 1 1 1 1 1 0 0 0 0 0 0 0 0 0 0 0 0 0 0 0 0 0 0 0 0 0 0 0 0 0 0 0 0 0 0 0 0 0 0 0 0 0 0 0 0 0 0 0 0 0 0 0 0 0 "/>
</feComponentTransfer>
<feComposite operator="in" in2="shape" in="coloredNoise1" result="noise1Clipped" />
<feFlood flood-color="rgba(34, 45, 52, 0.25)" result="color1Flood" />
<feComposite operator="in" in2="noise1Clipped" in="color1Flood" result="color1" />
<feMerge result="effect1_noise_237_44">
<feMergeNode in="shape" />
<feMergeNode in="color1" />
</feMerge>
</filter>
<filter id="filter5_n_237_44" x="0" y="544.75" width="68.0359" height="299.248" filterUnits="userSpaceOnUse" color-interpolation-filters="sRGB">
<feFlood flood-opacity="0" result="BackgroundImageFix"/>
<feBlend mode="normal" in="SourceGraphic" in2="BackgroundImageFix" result="shape"/>
<feTurbulence type="fractalNoise" baseFrequency="0.66666668653488159 0.66666668653488159" stitchTiles="stitch" numOctaves="3" result="noise" seed="9008" />
<feColorMatrix in="noise" type="luminanceToAlpha" result="alphaNoise" />
<feComponentTransfer in="alphaNoise" result="coloredNoise1">
<feFuncA type="discrete" tableValues="1 1 1 1 1 1 1 1 1 1 1 1 1 1 1 1 1 1 1 1 1 1 1 1 1 1 1 1 1 1 1 1 1 1 1 1 1 1 1 1 1 1 1 1 1 1 1 1 1 1 1 0 0 0 0 0 0 0 0 0 0 0 0 0 0 0 0 0 0 0 0 0 0 0 0 0 0 0 0 0 0 0 0 0 0 0 0 0 0 0 0 0 0 0 0 0 0 0 0 0 "/>
</feComponentTransfer>
<feComposite operator="in" in2="shape" in="coloredNoise1" result="noise1Clipped" />
<feFlood flood-color="rgba(34, 45, 52, 0.25)" result="color1Flood" />
<feComposite operator="in" in2="noise1Clipped" in="color1Flood" result="color1" />
<feMerge result="effect1_noise_237_44">
<feMergeNode in="shape" />
<feMergeNode in="color1" />
</feMerge>
</filter>
<filter id="filter6_n_237_44" x="70.7775" y="0" width="82.6919" height="65.1953" filterUnits="userSpaceOnUse" color-interpolation-filters="sRGB">
<feFlood flood-opacity="0" result="BackgroundImageFix"/>
<feBlend mode="normal" in="SourceGraphic" in2="BackgroundImageFix" result="shape"/>
<feTurbulence type="fractalNoise" baseFrequency="0.66666668653488159 0.66666668653488159" stitchTiles="stitch" numOctaves="3" result="noise" seed="9008" />
<feColorMatrix in="noise" type="luminanceToAlpha" result="alphaNoise" />
<feComponentTransfer in="alphaNoise" result="coloredNoise1">
<feFuncA type="discrete" tableValues="1 1 1 1 1 1 1 1 1 1 1 1 1 1 1 1 1 1 1 1 1 1 1 1 1 1 1 1 1 1 1 1 1 1 1 1 1 1 1 1 1 1 1 1 1 1 1 1 1 1 1 0 0 0 0 0 0 0 0 0 0 0 0 0 0 0 0 0 0 0 0 0 0 0 0 0 0 0 0 0 0 0 0 0 0 0 0 0 0 0 0 0 0 0 0 0 0 0 0 0 "/>
</feComponentTransfer>
<feComposite operator="in" in2="shape" in="coloredNoise1" result="noise1Clipped" />
<feFlood flood-color="rgba(34, 45, 52, 0.25)" result="color1Flood" />
<feComposite operator="in" in2="noise1Clipped" in="color1Flood" result="color1" />
<feMerge result="effect1_noise_237_44">
<feMergeNode in="shape" />
<feMergeNode in="color1" />
</feMerge>
</filter>
<filter id="filter7_n_237_44" x="67.792" y="768.297" width="56.7926" height="75.6973" filterUnits="userSpaceOnUse" color-interpolation-filters="sRGB">
<feFlood flood-opacity="0" result="BackgroundImageFix"/>
<feBlend mode="normal" in="SourceGraphic" in2="BackgroundImageFix" result="shape"/>
<feTurbulence type="fractalNoise" baseFrequency="0.66666668653488159 0.66666668653488159" stitchTiles="stitch" numOctaves="3" result="noise" seed="9008" />
<feColorMatrix in="noise" type="luminanceToAlpha" result="alphaNoise" />
<feComponentTransfer in="alphaNoise" result="coloredNoise1">
<feFuncA type="discrete" tableValues="1 1 1 1 1 1 1 1 1 1 1 1 1 1 1 1 1 1 1 1 1 1 1 1 1 1 1 1 1 1 1 1 1 1 1 1 1 1 1 1 1 1 1 1 1 1 1 1 1 1 1 0 0 0 0 0 0 0 0 0 0 0 0 0 0 0 0 0 0 0 0 0 0 0 0 0 0 0 0 0 0 0 0 0 0 0 0 0 0 0 0 0 0 0 0 0 0 0 0 0 "/>
</feComponentTransfer>
<feComposite operator="in" in2="shape" in="coloredNoise1" result="noise1Clipped" />
<feFlood flood-color="rgba(34, 45, 52, 0.25)" result="color1Flood" />
<feComposite operator="in" in2="noise1Clipped" in="color1Flood" result="color1" />
<feMerge result="effect1_noise_237_44">
<feMergeNode in="shape" />
<feMergeNode in="color1" />
</feMerge>
</filter>
<linearGradient id="paint0_linear_237_44" x1="-28.1661" y1="826.635" x2="428.992" y2="826.635" gradientUnits="userSpaceOnUse">
<stop offset="0.0480769" stop-color="#182216"/>
<stop offset="0.201923" stop-color="#F2527D"/>
<stop offset="0.461538" stop-color="#F285A2"/>
<stop offset="0.735577" stop-color="#F25774"/>
<stop offset="0.944135" stop-color="#182126"/>
</linearGradient>
<linearGradient id="paint1_linear_237_44" x1="-28.1661" y1="826.635" x2="428.992" y2="826.635" gradientUnits="userSpaceOnUse">
<stop offset="0.0480769" stop-color="#182216"/>
<stop offset="0.201923" stop-color="#F2527D"/>
<stop offset="0.461538" stop-color="#F285A2"/>
<stop offset="0.735577" stop-color="#F25774"/>
<stop offset="0.944135" stop-color="#182126"/>
</linearGradient>
<linearGradient id="paint2_linear_237_44" x1="-28.1661" y1="826.637" x2="428.992" y2="826.637" gradientUnits="userSpaceOnUse">
<stop offset="0.0480769" stop-color="#182216"/>
<stop offset="0.201923" stop-color="#F2527D"/>
<stop offset="0.461538" stop-color="#F285A2"/>
<stop offset="0.735577" stop-color="#F25774"/>
<stop offset="0.944135" stop-color="#182126"/>
</linearGradient>
<linearGradient id="paint3_linear_237_44" x1="-28.1662" y1="826.635" x2="428.992" y2="826.635" gradientUnits="userSpaceOnUse">
<stop offset="0.0480769" stop-color="#182216"/>
<stop offset="0.201923" stop-color="#F2527D"/>
<stop offset="0.461538" stop-color="#F285A2"/>
<stop offset="0.735577" stop-color="#F25774"/>
<stop offset="0.944135" stop-color="#182126"/>
</linearGradient>
<linearGradient id="paint4_linear_237_44" x1="-28.1661" y1="826.635" x2="428.992" y2="826.635" gradientUnits="userSpaceOnUse">
<stop offset="0.0480769" stop-color="#182216"/>
<stop offset="0.201923" stop-color="#F2527D"/>
<stop offset="0.461538" stop-color="#F285A2"/>
<stop offset="0.735577" stop-color="#F25774"/>
<stop offset="0.944135" stop-color="#182126"/>
</linearGradient>
<linearGradient id="paint5_linear_237_44" x1="-28.1661" y1="826.635" x2="428.992" y2="826.635" gradientUnits="userSpaceOnUse">
<stop offset="0.0480769" stop-color="#182216"/>
<stop offset="0.201923" stop-color="#F2527D"/>
<stop offset="0.461538" stop-color="#F285A2"/>
<stop offset="0.735577" stop-color="#F25774"/>
<stop offset="0.944135" stop-color="#182126"/>
</linearGradient>
<linearGradient id="paint6_linear_237_44" x1="-28.1661" y1="826.637" x2="428.992" y2="826.637" gradientUnits="userSpaceOnUse">
<stop offset="0.0480769" stop-color="#182216"/>
<stop offset="0.201923" stop-color="#F2527D"/>
<stop offset="0.461538" stop-color="#F285A2"/>
<stop offset="0.735577" stop-color="#F25774"/>
<stop offset="0.944135" stop-color="#182126"/>
</linearGradient>
<linearGradient id="paint7_linear_237_44" x1="-28.1662" y1="826.635" x2="428.992" y2="826.635" gradientUnits="userSpaceOnUse">
<stop offset="0.0480769" stop-color="#182216"/>
<stop offset="0.201923" stop-color="#F2527D"/>
<stop offset="0.461538" stop-color="#F285A2"/>
<stop offset="0.735577" stop-color="#F25774"/>
<stop offset="0.944135" stop-color="#182126"/>
</linearGradient>
</defs>
</svg>
