<svg width="133" height="29" viewBox="0 0 133 29" fill="none" xmlns="http://www.w3.org/2000/svg">
<g filter="url(#filter0_n_372_9)">
<path d="M109.037 28.3555C107.749 27.1626 106.571 25.858 105.256 24.6858C103.513 23.1325 99.1306 19.1822 96.5288 19.2588C96.0787 19.2715 95.4229 19.4661 95.0504 19.6894C93.7311 21.3735 98.0654 26.7336 99.1422 28.3555L85.173 28.3555C84.9092 26.3939 85.0779 24.3621 84.7617 22.3941C84.4008 20.1519 83.3628 16.5524 80.0296 16.385C77.9983 16.2829 72.4591 17.5651 70.1911 18.0356C59.3785 20.2762 48.8337 23.3542 37.9959 25.5407L22.1177 28.3555L-0.000255994 28.3555L-0.000256098 19.5841C1.17742 19.9828 2.20181 20.6127 3.36203 21.0465C11.6446 24.1484 21.0467 22.4531 29.2904 20.1359C53.04 13.4601 84.9751 -5.48764 110.583 1.64906C119.219 4.0556 131.652 10.6006 132.329 18.8601C132.631 22.5456 130.769 25.1356 129.023 28.3555L109.037 28.3555Z" fill="url(#paint0_linear_372_9)"/>
</g>
<g filter="url(#filter1_n_372_9)">
<path d="M109.037 28.3555C107.749 27.1626 106.571 25.858 105.256 24.6858C103.513 23.1325 99.1306 19.1822 96.5288 19.2588C96.0787 19.2715 95.4229 19.4661 95.0504 19.6894C93.7311 21.3735 98.0654 26.7336 99.1422 28.3555L85.173 28.3555C84.9092 26.3939 85.0779 24.3621 84.7617 22.3941C84.4008 20.1519 83.3628 16.5524 80.0296 16.385C77.9983 16.2829 72.4591 17.5651 70.1911 18.0356C59.3785 20.2762 48.8337 23.3542 37.9959 25.5407L22.1176 28.3555L-0.000257388 28.3555L-0.000257492 19.5841C1.17742 19.9828 2.20181 20.6127 3.36203 21.0465C11.6446 24.1484 21.0467 22.4531 29.2904 20.1359C53.04 13.4601 84.9751 -5.48764 110.583 1.64906C119.219 4.0556 131.652 10.6006 132.329 18.8601C132.631 22.5456 130.769 25.1356 129.023 28.3555L109.037 28.3555Z" fill="url(#paint1_linear_372_9)"/>
</g>
<defs>
<filter id="filter0_n_372_9" x="-0.000488281" y="0.0683594" width="132.362" height="28.2871" filterUnits="userSpaceOnUse" color-interpolation-filters="sRGB">
<feFlood flood-opacity="0" result="BackgroundImageFix"/>
<feBlend mode="normal" in="SourceGraphic" in2="BackgroundImageFix" result="shape"/>
<feTurbulence type="fractalNoise" baseFrequency="0.66666668653488159 0.66666668653488159" stitchTiles="stitch" numOctaves="3" result="noise" seed="9008" />
<feColorMatrix in="noise" type="luminanceToAlpha" result="alphaNoise" />
<feComponentTransfer in="alphaNoise" result="coloredNoise1">
<feFuncA type="discrete" tableValues="1 1 1 1 1 1 1 1 1 1 1 1 1 1 1 1 1 1 1 1 1 1 1 1 1 1 1 1 1 1 1 1 1 1 1 1 1 1 1 1 1 1 1 1 1 1 1 1 1 1 1 0 0 0 0 0 0 0 0 0 0 0 0 0 0 0 0 0 0 0 0 0 0 0 0 0 0 0 0 0 0 0 0 0 0 0 0 0 0 0 0 0 0 0 0 0 0 0 0 0 "/>
</feComponentTransfer>
<feComposite operator="in" in2="shape" in="coloredNoise1" result="noise1Clipped" />
<feFlood flood-color="rgba(34, 45, 52, 0.25)" result="color1Flood" />
<feComposite operator="in" in2="noise1Clipped" in="color1Flood" result="color1" />
<feMerge result="effect1_noise_372_9">
<feMergeNode in="shape" />
<feMergeNode in="color1" />
</feMerge>
</filter>
<filter id="filter1_n_372_9" x="-0.000488281" y="0.0683594" width="132.362" height="28.2871" filterUnits="userSpaceOnUse" color-interpolation-filters="sRGB">
<feFlood flood-opacity="0" result="BackgroundImageFix"/>
<feBlend mode="normal" in="SourceGraphic" in2="BackgroundImageFix" result="shape"/>
<feTurbulence type="fractalNoise" baseFrequency="0.66666668653488159 0.66666668653488159" stitchTiles="stitch" numOctaves="3" result="noise" seed="9008" />
<feColorMatrix in="noise" type="luminanceToAlpha" result="alphaNoise" />
<feComponentTransfer in="alphaNoise" result="coloredNoise1">
<feFuncA type="discrete" tableValues="1 1 1 1 1 1 1 1 1 1 1 1 1 1 1 1 1 1 1 1 1 1 1 1 1 1 1 1 1 1 1 1 1 1 1 1 1 1 1 1 1 1 1 1 1 1 1 1 1 1 1 0 0 0 0 0 0 0 0 0 0 0 0 0 0 0 0 0 0 0 0 0 0 0 0 0 0 0 0 0 0 0 0 0 0 0 0 0 0 0 0 0 0 0 0 0 0 0 0 0 "/>
</feComponentTransfer>
<feComposite operator="in" in2="shape" in="coloredNoise1" result="noise1Clipped" />
<feFlood flood-color="rgba(34, 45, 52, 0.25)" result="color1Flood" />
<feComposite operator="in" in2="noise1Clipped" in="color1Flood" result="color1" />
<feMerge result="effect1_noise_372_9">
<feMergeNode in="shape" />
<feMergeNode in="color1" />
</feMerge>
</filter>
<linearGradient id="paint0_linear_372_9" x1="364.85" y1="40.7949" x2="364.85" y2="-161.106" gradientUnits="userSpaceOnUse">
<stop offset="0.0480769" stop-color="#182216"/>
<stop offset="0.201923" stop-color="#F2527D"/>
<stop offset="0.461538" stop-color="#F285A2"/>
<stop offset="0.735577" stop-color="#F25774"/>
<stop offset="0.944135" stop-color="#182126"/>
</linearGradient>
<linearGradient id="paint1_linear_372_9" x1="364.85" y1="40.7949" x2="364.85" y2="-161.106" gradientUnits="userSpaceOnUse">
<stop offset="0.100962" stop-color="#182126"/>
<stop offset="0.201923" stop-color="#F2527D"/>
<stop offset="0.461538" stop-color="#F285A2"/>
<stop offset="0.572115" stop-color="#F25774"/>
<stop offset="0.944135" stop-color="#182126"/>
</linearGradient>
</defs>
</svg>
