<svg width="241" height="52" viewBox="0 0 241 52" fill="none" xmlns="http://www.w3.org/2000/svg">
<g filter="url(#filter0_n_393_14)">
<path d="M198.167 -0.00195363C195.826 2.16607 193.686 4.53697 191.295 6.66731C188.129 9.49037 180.163 16.6698 175.435 16.5306C174.617 16.5075 173.425 16.1538 172.748 15.7481C170.35 12.6873 178.227 2.94574 180.184 -0.00195384L154.796 -0.00195415C154.317 3.5631 154.624 7.25569 154.049 10.8323C153.393 14.9075 151.506 21.4493 145.449 21.7536C141.757 21.9391 131.69 19.6088 127.568 18.7537C107.917 14.6814 88.7522 9.08749 69.0553 5.11376L40.1977 -0.00195551L2.6823e-05 -0.00195599L2.66329e-05 15.9394C2.14038 15.2148 4.00213 14.0699 6.11075 13.2815C21.1637 7.64408 38.2513 10.7251 53.2338 14.9365C96.3969 27.0693 154.437 61.5054 200.978 48.535C216.672 44.1613 239.268 32.2662 240.498 17.2552C241.049 10.557 237.663 5.84996 234.49 -0.0019532L198.167 -0.00195363Z" fill="url(#paint0_linear_393_14)"/>
</g>
<g filter="url(#filter1_n_393_14)">
<path d="M198.167 -0.00195363C195.826 2.16607 193.686 4.53697 191.295 6.66731C188.129 9.49037 180.163 16.6698 175.435 16.5306C174.617 16.5075 173.425 16.1538 172.748 15.7481C170.35 12.6873 178.227 2.94574 180.184 -0.00195384L154.796 -0.00195415C154.317 3.5631 154.624 7.25569 154.049 10.8323C153.393 14.9075 151.506 21.4493 145.449 21.7536C141.757 21.9391 131.69 19.6088 127.568 18.7537C107.917 14.6814 88.7522 9.08749 69.0553 5.11376L40.1977 -0.00195551L3.87728e-05 -0.00195599L3.85827e-05 15.9394C2.14039 15.2148 4.00214 14.0699 6.11076 13.2815C21.1637 7.64408 38.2513 10.7251 53.2338 14.9365C96.3969 27.0693 154.437 61.5054 200.978 48.535C216.672 44.1613 239.268 32.2662 240.498 17.2552C241.049 10.557 237.663 5.84996 234.49 -0.0019532L198.167 -0.00195363Z" fill="url(#paint1_linear_393_14)"/>
</g>
<defs>
<filter id="filter0_n_393_14" x="0" y="-0.00195312" width="240.558" height="51.4102" filterUnits="userSpaceOnUse" color-interpolation-filters="sRGB">
<feFlood flood-opacity="0" result="BackgroundImageFix"/>
<feBlend mode="normal" in="SourceGraphic" in2="BackgroundImageFix" result="shape"/>
<feTurbulence type="fractalNoise" baseFrequency="0.66666668653488159 0.66666668653488159" stitchTiles="stitch" numOctaves="3" result="noise" seed="9008" />
<feColorMatrix in="noise" type="luminanceToAlpha" result="alphaNoise" />
<feComponentTransfer in="alphaNoise" result="coloredNoise1">
<feFuncA type="discrete" tableValues="1 1 1 1 1 1 1 1 1 1 1 1 1 1 1 1 1 1 1 1 1 1 1 1 1 1 1 1 1 1 1 1 1 1 1 1 1 1 1 1 1 1 1 1 1 1 1 1 1 1 1 0 0 0 0 0 0 0 0 0 0 0 0 0 0 0 0 0 0 0 0 0 0 0 0 0 0 0 0 0 0 0 0 0 0 0 0 0 0 0 0 0 0 0 0 0 0 0 0 0 "/>
</feComponentTransfer>
<feComposite operator="in" in2="shape" in="coloredNoise1" result="noise1Clipped" />
<feFlood flood-color="rgba(34, 45, 52, 0.25)" result="color1Flood" />
<feComposite operator="in" in2="noise1Clipped" in="color1Flood" result="color1" />
<feMerge result="effect1_noise_393_14">
<feMergeNode in="shape" />
<feMergeNode in="color1" />
</feMerge>
</filter>
<filter id="filter1_n_393_14" x="0" y="-0.00195312" width="240.558" height="51.4102" filterUnits="userSpaceOnUse" color-interpolation-filters="sRGB">
<feFlood flood-opacity="0" result="BackgroundImageFix"/>
<feBlend mode="normal" in="SourceGraphic" in2="BackgroundImageFix" result="shape"/>
<feTurbulence type="fractalNoise" baseFrequency="0.66666668653488159 0.66666668653488159" stitchTiles="stitch" numOctaves="3" result="noise" seed="9008" />
<feColorMatrix in="noise" type="luminanceToAlpha" result="alphaNoise" />
<feComponentTransfer in="alphaNoise" result="coloredNoise1">
<feFuncA type="discrete" tableValues="1 1 1 1 1 1 1 1 1 1 1 1 1 1 1 1 1 1 1 1 1 1 1 1 1 1 1 1 1 1 1 1 1 1 1 1 1 1 1 1 1 1 1 1 1 1 1 1 1 1 1 0 0 0 0 0 0 0 0 0 0 0 0 0 0 0 0 0 0 0 0 0 0 0 0 0 0 0 0 0 0 0 0 0 0 0 0 0 0 0 0 0 0 0 0 0 0 0 0 0 "/>
</feComponentTransfer>
<feComposite operator="in" in2="shape" in="coloredNoise1" result="noise1Clipped" />
<feFlood flood-color="rgba(34, 45, 52, 0.25)" result="color1Flood" />
<feComposite operator="in" in2="noise1Clipped" in="color1Flood" result="color1" />
<feMerge result="effect1_noise_393_14">
<feMergeNode in="shape" />
<feMergeNode in="color1" />
</feMerge>
</filter>
<linearGradient id="paint0_linear_393_14" x1="663.089" y1="-22.6096" x2="663.089" y2="344.33" gradientUnits="userSpaceOnUse">
<stop offset="0.0480769" stop-color="#182126"/>
<stop offset="0.201923" stop-color="#F2527D"/>
<stop offset="0.461538" stop-color="#F285A2"/>
<stop offset="0.735577" stop-color="#F25774"/>
<stop offset="0.944135" stop-color="#182126"/>
</linearGradient>
<linearGradient id="paint1_linear_393_14" x1="663.089" y1="-22.6096" x2="663.089" y2="344.33" gradientUnits="userSpaceOnUse">
<stop offset="0.100962" stop-color="#182126"/>
<stop offset="0.201923" stop-color="#F2527D"/>
<stop offset="0.461538" stop-color="#F285A2"/>
<stop offset="0.572115" stop-color="#F25774"/>
<stop offset="0.944135" stop-color="#182126"/>
</linearGradient>
</defs>
</svg>
