<svg width="133" height="29" viewBox="0 0 133 29" fill="none" xmlns="http://www.w3.org/2000/svg">
<g filter="url(#filter0_n_393_17)">
<path d="M23.917 0.0546872C25.2053 1.24759 26.383 2.55213 27.6984 3.72431C29.4407 5.27763 33.8235 9.22794 36.4253 9.15139C36.8754 9.13863 37.5312 8.94406 37.9037 8.72079C39.223 7.03669 34.8887 1.67659 33.8119 0.0546871L47.7811 0.0546869C48.0449 2.01628 47.8762 4.04805 48.1924 6.01602C48.5533 8.2583 49.5913 11.8578 52.9245 12.0252C54.9558 12.1273 60.495 10.8451 62.763 10.3746C73.5756 8.13391 84.1204 5.05596 94.9582 2.8695L110.836 0.0546862L132.954 0.0546859L132.954 8.82605C131.777 8.42735 130.752 7.79741 129.592 7.36362C121.309 4.26175 111.907 5.95702 103.664 8.27425C79.9141 14.9501 47.979 33.8978 22.3707 26.7611C13.735 24.3546 1.30245 17.8095 0.62533 9.55009C0.322664 5.86452 2.18522 3.27458 3.93137 0.0546875L23.917 0.0546872Z" fill="url(#paint0_linear_393_17)"/>
</g>
<g filter="url(#filter1_n_393_17)">
<path d="M23.917 0.0546872C25.2053 1.24759 26.383 2.55213 27.6984 3.72431C29.4407 5.27763 33.8235 9.22794 36.4253 9.15139C36.8754 9.13863 37.5312 8.94406 37.9037 8.72079C39.223 7.03669 34.8887 1.67659 33.8119 0.0546871L47.7811 0.0546869C48.0449 2.01628 47.8762 4.04805 48.1924 6.01602C48.5533 8.2583 49.5913 11.8578 52.9245 12.0252C54.9558 12.1273 60.495 10.8451 62.763 10.3746C73.5756 8.13391 84.1204 5.05596 94.9582 2.8695L110.836 0.0546862L132.954 0.0546859L132.954 8.82605C131.777 8.42735 130.752 7.79741 129.592 7.36362C121.309 4.26175 111.907 5.95702 103.664 8.27425C79.9141 14.9501 47.979 33.8978 22.3707 26.7611C13.735 24.3546 1.30245 17.8095 0.62533 9.55009C0.322664 5.86452 2.18522 3.27458 3.93137 0.0546875L23.917 0.0546872Z" fill="url(#paint1_linear_393_17)"/>
</g>
<defs>
<filter id="filter0_n_393_17" x="0.592773" y="0.0546875" width="132.361" height="28.2871" filterUnits="userSpaceOnUse" color-interpolation-filters="sRGB">
<feFlood flood-opacity="0" result="BackgroundImageFix"/>
<feBlend mode="normal" in="SourceGraphic" in2="BackgroundImageFix" result="shape"/>
<feTurbulence type="fractalNoise" baseFrequency="0.66666668653488159 0.66666668653488159" stitchTiles="stitch" numOctaves="3" result="noise" seed="9008" />
<feColorMatrix in="noise" type="luminanceToAlpha" result="alphaNoise" />
<feComponentTransfer in="alphaNoise" result="coloredNoise1">
<feFuncA type="discrete" tableValues="1 1 1 1 1 1 1 1 1 1 1 1 1 1 1 1 1 1 1 1 1 1 1 1 1 1 1 1 1 1 1 1 1 1 1 1 1 1 1 1 1 1 1 1 1 1 1 1 1 1 1 0 0 0 0 0 0 0 0 0 0 0 0 0 0 0 0 0 0 0 0 0 0 0 0 0 0 0 0 0 0 0 0 0 0 0 0 0 0 0 0 0 0 0 0 0 0 0 0 0 "/>
</feComponentTransfer>
<feComposite operator="in" in2="shape" in="coloredNoise1" result="noise1Clipped" />
<feFlood flood-color="rgba(34, 45, 52, 0.25)" result="color1Flood" />
<feComposite operator="in" in2="noise1Clipped" in="color1Flood" result="color1" />
<feMerge result="effect1_noise_393_17">
<feMergeNode in="shape" />
<feMergeNode in="color1" />
</feMerge>
</filter>
<filter id="filter1_n_393_17" x="0.592773" y="0.0546875" width="132.361" height="28.2871" filterUnits="userSpaceOnUse" color-interpolation-filters="sRGB">
<feFlood flood-opacity="0" result="BackgroundImageFix"/>
<feBlend mode="normal" in="SourceGraphic" in2="BackgroundImageFix" result="shape"/>
<feTurbulence type="fractalNoise" baseFrequency="0.66666668653488159 0.66666668653488159" stitchTiles="stitch" numOctaves="3" result="noise" seed="9008" />
<feColorMatrix in="noise" type="luminanceToAlpha" result="alphaNoise" />
<feComponentTransfer in="alphaNoise" result="coloredNoise1">
<feFuncA type="discrete" tableValues="1 1 1 1 1 1 1 1 1 1 1 1 1 1 1 1 1 1 1 1 1 1 1 1 1 1 1 1 1 1 1 1 1 1 1 1 1 1 1 1 1 1 1 1 1 1 1 1 1 1 1 0 0 0 0 0 0 0 0 0 0 0 0 0 0 0 0 0 0 0 0 0 0 0 0 0 0 0 0 0 0 0 0 0 0 0 0 0 0 0 0 0 0 0 0 0 0 0 0 0 "/>
</feComponentTransfer>
<feComposite operator="in" in2="shape" in="coloredNoise1" result="noise1Clipped" />
<feFlood flood-color="rgba(34, 45, 52, 0.25)" result="color1Flood" />
<feComposite operator="in" in2="noise1Clipped" in="color1Flood" result="color1" />
<feMerge result="effect1_noise_393_17">
<feMergeNode in="shape" />
<feMergeNode in="color1" />
</feMerge>
</filter>
<linearGradient id="paint0_linear_393_17" x1="-231.896" y1="-12.3847" x2="-231.896" y2="189.516" gradientUnits="userSpaceOnUse">
<stop offset="0.0480769" stop-color="#182126"/>
<stop offset="0.201923" stop-color="#F2527D"/>
<stop offset="0.461538" stop-color="#F285A2"/>
<stop offset="0.735577" stop-color="#F25774"/>
<stop offset="0.944135" stop-color="#182126"/>
</linearGradient>
<linearGradient id="paint1_linear_393_17" x1="-231.896" y1="-12.3847" x2="-231.896" y2="189.516" gradientUnits="userSpaceOnUse">
<stop offset="0.100962" stop-color="#182126"/>
<stop offset="0.201923" stop-color="#F2527D"/>
<stop offset="0.461538" stop-color="#F285A2"/>
<stop offset="0.572115" stop-color="#F25774"/>
<stop offset="0.944135" stop-color="#182126"/>
</linearGradient>
</defs>
</svg>
