<svg width="154" height="300" viewBox="0 0 154 300" fill="none" xmlns="http://www.w3.org/2000/svg">
<g filter="url(#filter0_n_372_2)">
<path d="M0 247.047C2.70106 244.129 5.65489 241.46 8.30901 238.48C11.8262 234.533 20.7707 224.602 20.5974 218.708C20.5685 217.688 20.128 216.202 19.6224 215.358C15.8091 212.369 3.67243 222.189 0 224.629L0 192.979C4.44158 192.381 9.04205 192.764 13.4981 192.047C18.5752 191.23 26.7253 188.878 27.1045 181.326C27.3356 176.724 24.4323 164.174 23.3671 159.035C18.2935 134.537 11.3242 110.646 6.37349 86.0912L0 50.1162L0 0.00418091H19.8607C18.958 2.67242 17.5316 4.99336 16.5494 7.62204C9.52593 26.3877 13.3645 47.6897 18.6113 66.3674C33.7271 120.176 76.6299 192.531 60.4705 250.551C55.0215 270.116 40.2017 298.285 21.5001 299.819C13.155 300.505 7.2907 296.285 0 292.328L0 247.047Z" fill="url(#paint0_linear_372_2)"/>
<path d="M132.164 0.00405884H153.469C144.626 31.9658 118.103 79.6865 85.5059 60.9781C72.7048 53.6327 66.3602 36.3352 74.2359 20.6994C84.0976 1.12499 108.003 8.06593 123.577 4.27676C126.426 3.58223 129.922 2.27229 132.161 -0.000335693L132.164 0.00405884Z" fill="url(#paint1_linear_372_2)"/>
</g>
<defs>
<filter id="filter0_n_372_2" x="0" y="0" width="153.469" height="299.893" filterUnits="userSpaceOnUse" color-interpolation-filters="sRGB">
<feFlood flood-opacity="0" result="BackgroundImageFix"/>
<feBlend mode="normal" in="SourceGraphic" in2="BackgroundImageFix" result="shape"/>
<feTurbulence type="fractalNoise" baseFrequency="0.66666668653488159 0.66666668653488159" stitchTiles="stitch" numOctaves="3" result="noise" seed="9008" />
<feColorMatrix in="noise" type="luminanceToAlpha" result="alphaNoise" />
<feComponentTransfer in="alphaNoise" result="coloredNoise1">
<feFuncA type="discrete" tableValues="1 1 1 1 1 1 1 1 1 1 1 1 1 1 1 1 1 1 1 1 1 1 1 1 1 1 1 1 1 1 1 1 1 1 1 1 1 1 1 1 1 1 1 1 1 1 1 1 1 1 1 0 0 0 0 0 0 0 0 0 0 0 0 0 0 0 0 0 0 0 0 0 0 0 0 0 0 0 0 0 0 0 0 0 0 0 0 0 0 0 0 0 0 0 0 0 0 0 0 0 "/>
</feComponentTransfer>
<feComposite operator="in" in2="shape" in="coloredNoise1" result="noise1Clipped" />
<feFlood flood-color="rgba(34, 45, 52, 0.25)" result="color1Flood" />
<feComposite operator="in" in2="noise1Clipped" in="color1Flood" result="color1" />
<feMerge result="effect1_noise_372_2">
<feMergeNode in="shape" />
<feMergeNode in="color1" />
</feMerge>
</filter>
<linearGradient id="paint0_linear_372_2" x1="-28.1661" y1="826.633" x2="428.992" y2="826.633" gradientUnits="userSpaceOnUse">
<stop offset="0.0480769" stop-color="#182216"/>
<stop offset="0.201923" stop-color="#F2527D"/>
<stop offset="0.461538" stop-color="#F285A2"/>
<stop offset="0.735577" stop-color="#F25774"/>
<stop offset="0.944135" stop-color="#182126"/>
</linearGradient>
<linearGradient id="paint1_linear_372_2" x1="-28.1661" y1="826.633" x2="428.992" y2="826.633" gradientUnits="userSpaceOnUse">
<stop offset="0.0480769" stop-color="#182216"/>
<stop offset="0.201923" stop-color="#F2527D"/>
<stop offset="0.461538" stop-color="#F285A2"/>
<stop offset="0.735577" stop-color="#F25774"/>
<stop offset="0.944135" stop-color="#182126"/>
</linearGradient>
</defs>
</svg>
